<mxfile host="Electron" agent="Mozilla/5.0 (Macintosh; Intel Mac OS X 10_15_7) AppleWebKit/537.36 (KHTML, like Gecko) draw.io/26.0.4 Chrome/128.0.6613.186 Electron/32.2.5 Safari/537.36" version="26.0.4">
  <diagram name="第 1 页" id="GCe8BT_JKzLG1BUOL_XY">
    <mxGraphModel dx="1044" dy="680" grid="1" gridSize="10" guides="1" tooltips="1" connect="1" arrows="1" fold="1" page="1" pageScale="1" pageWidth="827" pageHeight="1169" math="0" shadow="0">
      <root>
        <mxCell id="0" />
        <mxCell id="1" parent="0" />
        <mxCell id="m8I5skKnzxO_n6kYyNuX-1" value="原始日志" style="rounded=0;whiteSpace=wrap;html=1;" vertex="1" parent="1">
          <mxGeometry x="130" y="300" width="120" height="60" as="geometry" />
        </mxCell>
        <mxCell id="m8I5skKnzxO_n6kYyNuX-2" value="HLM-Parser解析&lt;div&gt;日志模板&lt;/div&gt;" style="rounded=0;whiteSpace=wrap;html=1;" vertex="1" parent="1">
          <mxGeometry x="340" y="300" width="120" height="60" as="geometry" />
        </mxCell>
        <mxCell id="m8I5skKnzxO_n6kYyNuX-3" value="&lt;div&gt;1.引言&lt;/div&gt;&lt;div&gt;2.基于TCN的多维度特征的轻量级日志异常检测方法&lt;/div&gt;&lt;div&gt;&amp;nbsp; 数据预处理，日志向量化表示&lt;/div&gt;&lt;div&gt;&amp;nbsp; 多维度的特征表示 TF-IDF+FastText+PPA 日志特征表示降级&lt;/div&gt;&lt;div&gt;&amp;nbsp; 基于TCN的异常检测阶段&lt;/div&gt;&lt;div&gt;&amp;nbsp; 基于xxxx模型剪枝&amp;nbsp;&lt;/div&gt;&lt;div&gt;3.实验与分析&lt;/div&gt;&lt;div&gt;4.本章小节&lt;/div&gt;" style="text;html=1;align=left;verticalAlign=middle;resizable=0;points=[];autosize=1;strokeColor=none;fillColor=none;" vertex="1" parent="1">
          <mxGeometry x="477" y="10" width="350" height="130" as="geometry" />
        </mxCell>
        <mxCell id="m8I5skKnzxO_n6kYyNuX-4" value="特征向量提取&lt;div&gt;TF-IDF&lt;/div&gt;&lt;div&gt;FastText&lt;/div&gt;&lt;div&gt;PPA降级&lt;/div&gt;" style="rounded=0;whiteSpace=wrap;html=1;" vertex="1" parent="1">
          <mxGeometry x="130" y="430" width="120" height="90" as="geometry" />
        </mxCell>
        <mxCell id="m8I5skKnzxO_n6kYyNuX-5" value="TCN卷积+模型剪枝" style="rounded=0;whiteSpace=wrap;html=1;" vertex="1" parent="1">
          <mxGeometry x="340" y="450" width="120" height="60" as="geometry" />
        </mxCell>
      </root>
    </mxGraphModel>
  </diagram>
</mxfile>
